# xmcd
#
# Track frame offsets:
#	150
#	13472
#	24051
#	36096
#	47674
#	59716
#	70236
#	80282
#	92155
#	103670
#	116500
#	127863
#	138620
#	152482
#	163557
#	176569
#	186699
#	199455
#	209968
#	222228
#	234147
#	245146
#
# Disc length: 3408 seconds
#
# Revision: 1
# Processed by: cddbd v1.5.2PL0 Copyright (c) Steve Scherf et al.
# Submitted via: EZCDAudioConverter 2.8.0.1
#
DISCID=450d4e16
DTITLE=Johnny Boot aka Tony Boot - Country '67 and On The Right Track
DYEAR=1970
DGENRE=Country
TTITLE0=Johnny Boot - Wishful Thinkin'
TTITLE1=Johnny Boot - I'm On Your Side
TTITLE2=Johnny Boot - Burning Bridges
TTITLE3=Johnny Boot - It's Such A Pretty World Today
TTITLE4=Johnny Boot - Appartment #9
TTITLE5=Johnny Boot - I Think I Can
TTITLE6=Johnny Boot - When My Blue Moon Turns To Gold Again
TTITLE7=Johnny Boot - My Lonely Came Early Today
TTITLE8=Johnny Boot - A Lovers Question
TTITLE9=Johnny Boot - There Goes My Everything
TTITLE10=Johnny Boot - Walk Through This World With Me
TTITLE11=Johnny Boot - Heart  We Did All That We Could
TTITLE12=Tony Boot - Las Virgenes Road
TTITLE13=Tony Boot - Give Me One Last Kiss And go
TTITLE14=Tony Boot - Under Your Spell Again
TTITLE15=Tony Boot - Don't Ever Tell Me Goodbye
TTITLE16=Tony Boot - Thanks For Nothin'
TTITLE17=Tony Boot - Lorelei
TTITLE18=Tony Boot - After Being Your Lover
TTITLE19=Tony Boot - One Too Many Times
TTITLE20=Tony Boot - Heaven Is A Place Called Love
TTITLE21=Tony Boot - Without You
EXTD=
EXTT0=
EXTT1=
EXTT2=
EXTT3=
EXTT4=
EXTT5=
EXTT6=
EXTT7=
EXTT8=
EXTT9=
EXTT10=
EXTT11=
EXTT12=
EXTT13=
EXTT14=
EXTT15=
EXTT16=
EXTT17=
EXTT18=
EXTT19=
EXTT20=
EXTT21=
PLAYORDER=
